<?xml version="1.0" encoding="utf-8"?>
<!-- Generator: Adobe Illustrator 26.2.1, SVG Export Plug-In . SVG Version: 6.00 Build 0)  -->
<svg version="1.1" id="图层_1" xmlns="http://www.w3.org/2000/svg" xmlns:xlink="http://www.w3.org/1999/xlink" x="0px" y="0px"
	 viewBox="0 0 1054 1054" style="enable-background:new 0 0 1054 1054;" xml:space="preserve">
<path d="M34.1,777.7V305.1c0-11.8,5.9-17.7,11.8-23.6L471.2,21.6c5.9-5.9,17.7-5.9,23.6,0l106.3,47.3c5.9,5.9,11.8,17.7,11.8,23.6
	v360.4c0,17.7-17.7,35.4-35.4,23.6L347.2,370.1c-17.7-5.9-35.4,5.9-35.4,23.6V890c0,17.7-23.6,35.4-41.4,23.6L45.9,801.3
	C40,795.4,34.1,783.6,34.1,777.7z"/>
<path d="M1020.6,281.5v466.7c0,11.8-5.9,17.7-11.8,23.6l-425.3,259.9c-5.9,5.9-17.7,5.9-23.6,0l-106.3-47.3
	c-11.8-5.9-17.7-11.8-17.7-23.6V600.5c0-17.7,17.7-35.4,35.4-23.6l230.4,106.3c17.7,5.9,35.4-5.9,35.4-23.6V169.2
	c0-17.7,23.6-35.4,41.4-23.6l224.5,112.2C1014.7,263.8,1020.6,275.6,1020.6,281.5z"/>
</svg>
